<svg width="172" height="50" viewBox="0 0 172 50" fill="none" xmlns="http://www.w3.org/2000/svg">
<path d="M87.97 3.5H96.745V35H87.97V3.5ZM124.202 22.58L120.692 13.625L117.137 22.58H124.202ZM116.552 3.275H124.967L138.377 35H129.017L126.722 29.375H114.572L112.322 35H103.142L116.552 3.275ZM156.598 35.63C154.348 35.63 152.233 35.225 150.253 34.415C148.273 33.605 146.548 32.48 145.078 31.04C143.638 29.57 142.483 27.845 141.613 25.865C140.773 23.855 140.353 21.68 140.353 19.34V19.25C140.353 16.97 140.773 14.84 141.613 12.86C142.453 10.85 143.608 9.11 145.078 7.64C146.548 6.14 148.288 4.97 150.298 4.13C152.338 3.29 154.558 2.87 156.958 2.87C158.578 2.87 160.048 3.035 161.368 3.365C162.688 3.665 163.888 4.115 164.968 4.715C166.078 5.285 167.068 5.975 167.938 6.785C168.838 7.595 169.633 8.48 170.323 9.44L163.753 14.525C162.853 13.385 161.863 12.485 160.783 11.825C159.703 11.165 158.398 10.835 156.868 10.835C155.758 10.835 154.738 11.06 153.808 11.51C152.908 11.93 152.128 12.515 151.468 13.265C150.808 14.015 150.283 14.9 149.893 15.92C149.533 16.94 149.353 18.02 149.353 19.16V19.25C149.353 20.42 149.533 21.53 149.893 22.58C150.283 23.6 150.808 24.485 151.468 25.235C152.128 25.985 152.908 26.585 153.808 27.035C154.738 27.455 155.758 27.665 156.868 27.665C157.678 27.665 158.413 27.575 159.073 27.395C159.763 27.215 160.378 26.96 160.918 26.63C161.488 26.27 162.013 25.865 162.493 25.415C163.003 24.935 163.498 24.41 163.978 23.84L170.548 28.52C169.798 29.54 168.973 30.485 168.073 31.355C167.203 32.225 166.198 32.975 165.058 33.605C163.948 34.235 162.688 34.73 161.278 35.09C159.898 35.45 158.338 35.63 156.598 35.63Z" fill="white"/>
<rect x="86" y="3" width="13" height="5" fill="white"/>
<rect x="86" y="30" width="13" height="5" fill="white"/>
<path d="M86.54 41.96H87.2096V47H86.54V41.96ZM90.5228 43.3064C90.9452 43.3064 91.2836 43.4408 91.538 43.7096C91.7924 43.9736 91.9196 44.3336 91.9196 44.7896V47H91.2932V44.8256C91.2932 44.5328 91.214 44.3072 91.0556 44.1488C90.8972 43.9856 90.6788 43.904 90.4004 43.904C90.0884 43.904 89.8364 44.0024 89.6444 44.1992C89.4524 44.3912 89.3564 44.6888 89.3564 45.092V47H88.73V43.4H89.3564V43.9184C89.6108 43.5104 89.9996 43.3064 90.5228 43.3064ZM93.838 44.372C93.838 44.5112 93.9076 44.624 94.0468 44.7104C94.186 44.792 94.354 44.8592 94.5508 44.912C94.7476 44.96 94.9444 45.0176 95.1412 45.0848C95.338 45.1472 95.506 45.2576 95.6452 45.416C95.7844 45.5696 95.854 45.7688 95.854 46.0136C95.854 46.34 95.7268 46.6016 95.4724 46.7984C95.2228 46.9952 94.9012 47.0936 94.5076 47.0936C94.1572 47.0936 93.8572 47.0168 93.6076 46.8632C93.358 46.7096 93.1804 46.5056 93.0748 46.2512L93.6148 45.9416C93.6724 46.1144 93.7804 46.2512 93.9388 46.352C94.0972 46.4528 94.2868 46.5032 94.5076 46.5032C94.714 46.5032 94.8844 46.4648 95.0188 46.388C95.1532 46.3064 95.2204 46.1816 95.2204 46.0136C95.2204 45.8744 95.1508 45.764 95.0116 45.6824C94.8724 45.596 94.7044 45.5288 94.5076 45.4808C94.3108 45.428 94.114 45.368 93.9172 45.3008C93.7204 45.2336 93.5524 45.1232 93.4132 44.9696C93.274 44.816 93.2044 44.6192 93.2044 44.3792C93.2044 44.0672 93.3244 43.8104 93.5644 43.6088C93.8092 43.4072 94.114 43.3064 94.4788 43.3064C94.7716 43.3064 95.0308 43.3736 95.2564 43.508C95.4868 43.6376 95.6596 43.82 95.7748 44.0552L95.2492 44.3504C95.1196 44.0432 94.8628 43.8896 94.4788 43.8896C94.3012 43.8896 94.15 43.9328 94.0252 44.0192C93.9004 44.1008 93.838 44.2184 93.838 44.372ZM98.9175 44.0048H97.9599V45.956C97.9599 46.1336 97.9935 46.2608 98.0607 46.3376C98.1327 46.4096 98.2407 46.448 98.3847 46.4528C98.5287 46.4528 98.7063 46.448 98.9175 46.4384V47C98.3703 47.072 97.9695 47.0288 97.7151 46.8704C97.4607 46.7072 97.3335 46.4024 97.3335 45.956V44.0048H96.6207V43.4H97.3335V42.5792L97.9599 42.392V43.4H98.9175V44.0048ZM102.961 43.4H103.587V47H102.961V46.3808C102.649 46.856 102.195 47.0936 101.6 47.0936C101.096 47.0936 100.667 46.9112 100.311 46.5464C99.9563 46.1768 99.7787 45.728 99.7787 45.2C99.7787 44.672 99.9563 44.2256 100.311 43.8608C100.667 43.4912 101.096 43.3064 101.6 43.3064C102.195 43.3064 102.649 43.544 102.961 44.0192V43.4ZM101.679 46.4888C102.044 46.4888 102.349 46.3664 102.594 46.1216C102.839 45.872 102.961 45.5648 102.961 45.2C102.961 44.8352 102.839 44.5304 102.594 44.2856C102.349 44.036 102.044 43.9112 101.679 43.9112C101.319 43.9112 101.017 44.036 100.772 44.2856C100.527 44.5304 100.405 44.8352 100.405 45.2C100.405 45.5648 100.527 45.872 100.772 46.1216C101.017 46.3664 101.319 46.4888 101.679 46.4888ZM106.833 43.3064C107.256 43.3064 107.594 43.4408 107.849 43.7096C108.103 43.9736 108.23 44.3336 108.23 44.7896V47H107.604V44.8256C107.604 44.5328 107.525 44.3072 107.366 44.1488C107.208 43.9856 106.989 43.904 106.711 43.904C106.399 43.904 106.147 44.0024 105.955 44.1992C105.763 44.3912 105.667 44.6888 105.667 45.092V47H105.041V43.4H105.667V43.9184C105.921 43.5104 106.31 43.3064 106.833 43.3064ZM111.567 44.0048H110.609V45.956C110.609 46.1336 110.643 46.2608 110.71 46.3376C110.782 46.4096 110.89 46.448 111.034 46.4528C111.178 46.4528 111.356 46.448 111.567 46.4384V47C111.02 47.072 110.619 47.0288 110.365 46.8704C110.11 46.7072 109.983 46.4024 109.983 45.956V44.0048H109.27V43.4H109.983V42.5792L110.609 42.392V43.4H111.567V44.0048ZM116.218 47L115.807 45.8696H113.539L113.129 47H112.416L114.295 41.96H115.051L116.93 47H116.218ZM113.77 45.2432H115.577L114.67 42.7592L113.77 45.2432ZM120.861 41.96H121.487V47H120.861V46.3808C120.549 46.856 120.095 47.0936 119.5 47.0936C118.996 47.0936 118.566 46.9112 118.211 46.5464C117.856 46.1768 117.678 45.728 117.678 45.2C117.678 44.672 117.856 44.2256 118.211 43.8608C118.566 43.4912 118.996 43.3064 119.5 43.3064C120.095 43.3064 120.549 43.544 120.861 44.0192V41.96ZM119.579 46.4888C119.944 46.4888 120.249 46.3664 120.493 46.1216C120.738 45.872 120.861 45.5648 120.861 45.2C120.861 44.8352 120.738 44.5304 120.493 44.2856C120.249 44.036 119.944 43.9112 119.579 43.9112C119.219 43.9112 118.917 44.036 118.672 44.2856C118.427 44.5304 118.305 44.8352 118.305 45.2C118.305 45.5648 118.427 45.872 118.672 46.1216C118.917 46.3664 119.219 46.4888 119.579 46.4888ZM125.921 41.96H126.547V47H125.921V46.3808C125.609 46.856 125.155 47.0936 124.56 47.0936C124.056 47.0936 123.627 46.9112 123.271 46.5464C122.916 46.1768 122.739 45.728 122.739 45.2C122.739 44.672 122.916 44.2256 123.271 43.8608C123.627 43.4912 124.056 43.3064 124.56 43.3064C125.155 43.3064 125.609 43.544 125.921 44.0192V41.96ZM124.639 46.4888C125.004 46.4888 125.309 46.3664 125.554 46.1216C125.799 45.872 125.921 45.5648 125.921 45.2C125.921 44.8352 125.799 44.5304 125.554 44.2856C125.309 44.036 125.004 43.9112 124.639 43.9112C124.279 43.9112 123.977 44.036 123.732 44.2856C123.487 44.5304 123.365 44.8352 123.365 45.2C123.365 45.5648 123.487 45.872 123.732 46.1216C123.977 46.3664 124.279 46.4888 124.639 46.4888ZM128.627 44.0048C128.833 43.5584 129.208 43.3352 129.75 43.3352V43.9904C129.443 43.976 129.179 44.0576 128.958 44.2352C128.737 44.4128 128.627 44.6984 128.627 45.092V47H128V43.4H128.627V44.0048ZM131.109 45.488C131.172 45.8096 131.318 46.0592 131.548 46.2368C131.784 46.4144 132.072 46.5032 132.412 46.5032C132.888 46.5032 133.233 46.328 133.449 45.9776L133.982 46.28C133.632 46.8224 133.104 47.0936 132.398 47.0936C131.827 47.0936 131.361 46.916 131.001 46.5608C130.646 46.2008 130.468 45.7472 130.468 45.2C130.468 44.6576 130.644 44.2064 130.994 43.8464C131.344 43.4864 131.798 43.3064 132.355 43.3064C132.883 43.3064 133.312 43.4936 133.644 43.868C133.98 44.2376 134.148 44.684 134.148 45.2072C134.148 45.2984 134.14 45.392 134.126 45.488H131.109ZM132.355 43.8968C132.019 43.8968 131.74 43.9928 131.52 44.1848C131.299 44.372 131.162 44.624 131.109 44.9408H133.514C133.461 44.6 133.327 44.3408 133.111 44.1632C132.895 43.9856 132.643 43.8968 132.355 43.8968ZM135.771 44.372C135.771 44.5112 135.841 44.624 135.98 44.7104C136.119 44.792 136.287 44.8592 136.484 44.912C136.681 44.96 136.877 45.0176 137.074 45.0848C137.271 45.1472 137.439 45.2576 137.578 45.416C137.717 45.5696 137.787 45.7688 137.787 46.0136C137.787 46.34 137.66 46.6016 137.405 46.7984C137.156 46.9952 136.834 47.0936 136.441 47.0936C136.09 47.0936 135.79 47.0168 135.541 46.8632C135.291 46.7096 135.113 46.5056 135.008 46.2512L135.548 45.9416C135.605 46.1144 135.713 46.2512 135.872 46.352C136.03 46.4528 136.22 46.5032 136.441 46.5032C136.647 46.5032 136.817 46.4648 136.952 46.388C137.086 46.3064 137.153 46.1816 137.153 46.0136C137.153 45.8744 137.084 45.764 136.945 45.6824C136.805 45.596 136.637 45.5288 136.441 45.4808C136.244 45.428 136.047 45.368 135.85 45.3008C135.653 45.2336 135.485 45.1232 135.346 44.9696C135.207 44.816 135.137 44.6192 135.137 44.3792C135.137 44.0672 135.257 43.8104 135.497 43.6088C135.742 43.4072 136.047 43.3064 136.412 43.3064C136.705 43.3064 136.964 43.3736 137.189 43.508C137.42 43.6376 137.593 43.82 137.708 44.0552L137.182 44.3504C137.053 44.0432 136.796 43.8896 136.412 43.8896C136.234 43.8896 136.083 43.9328 135.958 44.0192C135.833 44.1008 135.771 44.2184 135.771 44.372ZM139.348 44.372C139.348 44.5112 139.417 44.624 139.556 44.7104C139.696 44.792 139.864 44.8592 140.06 44.912C140.257 44.96 140.454 45.0176 140.651 45.0848C140.848 45.1472 141.016 45.2576 141.155 45.416C141.294 45.5696 141.364 45.7688 141.364 46.0136C141.364 46.34 141.236 46.6016 140.982 46.7984C140.732 46.9952 140.411 47.0936 140.017 47.0936C139.667 47.0936 139.367 47.0168 139.117 46.8632C138.868 46.7096 138.69 46.5056 138.584 46.2512L139.124 45.9416C139.182 46.1144 139.29 46.2512 139.448 46.352C139.607 46.4528 139.796 46.5032 140.017 46.5032C140.224 46.5032 140.394 46.4648 140.528 46.388C140.663 46.3064 140.73 46.1816 140.73 46.0136C140.73 45.8744 140.66 45.764 140.521 45.6824C140.382 45.596 140.214 45.5288 140.017 45.4808C139.82 45.428 139.624 45.368 139.427 45.3008C139.23 45.2336 139.062 45.1232 138.923 44.9696C138.784 44.816 138.714 44.6192 138.714 44.3792C138.714 44.0672 138.834 43.8104 139.074 43.6088C139.319 43.4072 139.624 43.3064 139.988 43.3064C140.281 43.3064 140.54 43.3736 140.766 43.508C140.996 43.6376 141.169 43.82 141.284 44.0552L140.759 44.3504C140.629 44.0432 140.372 43.8896 139.988 43.8896C139.811 43.8896 139.66 43.9328 139.535 44.0192C139.41 44.1008 139.348 44.2184 139.348 44.372ZM145.043 47.0936C144.28 47.0936 143.649 46.8416 143.149 46.3376C142.655 45.8336 142.408 45.2144 142.408 44.48C142.408 43.7456 142.655 43.1264 143.149 42.6224C143.649 42.1184 144.28 41.8664 145.043 41.8664C145.504 41.8664 145.926 41.9768 146.31 42.1976C146.699 42.4184 147.001 42.716 147.217 43.0904L146.634 43.4288C146.49 43.1504 146.274 42.9296 145.986 42.7664C145.703 42.5984 145.389 42.5144 145.043 42.5144C144.462 42.5144 143.987 42.7016 143.617 43.076C143.253 43.4504 143.07 43.9184 143.07 44.48C143.07 45.0368 143.253 45.5024 143.617 45.8768C143.987 46.2512 144.462 46.4384 145.043 46.4384C145.389 46.4384 145.703 46.3568 145.986 46.1936C146.274 46.0256 146.49 45.8048 146.634 45.5312L147.217 45.8624C147.006 46.2368 146.706 46.5368 146.317 46.7624C145.929 46.9832 145.504 47.0936 145.043 47.0936ZM150.229 43.3064C150.651 43.3064 150.99 43.4408 151.244 43.7096C151.498 43.9736 151.626 44.3336 151.626 44.7896V47H150.999V44.8256C150.999 44.5328 150.92 44.3072 150.762 44.1488C150.603 43.9856 150.385 43.904 150.106 43.904C149.794 43.904 149.542 44.0024 149.35 44.1992C149.158 44.3912 149.062 44.6888 149.062 45.092V47H148.436V41.96H149.062V43.9184C149.317 43.5104 149.706 43.3064 150.229 43.3064ZM155.985 43.4H156.611V47H155.985V46.3808C155.673 46.856 155.219 47.0936 154.624 47.0936C154.12 47.0936 153.69 46.9112 153.335 46.5464C152.98 46.1768 152.802 45.728 152.802 45.2C152.802 44.672 152.98 44.2256 153.335 43.8608C153.69 43.4912 154.12 43.3064 154.624 43.3064C155.219 43.3064 155.673 43.544 155.985 44.0192V43.4ZM154.703 46.4888C155.068 46.4888 155.373 46.3664 155.618 46.1216C155.862 45.872 155.985 45.5648 155.985 45.2C155.985 44.8352 155.862 44.5304 155.618 44.2856C155.373 44.036 155.068 43.9112 154.703 43.9112C154.343 43.9112 154.041 44.036 153.796 44.2856C153.551 44.5304 153.429 44.8352 153.429 45.2C153.429 45.5648 153.551 45.872 153.796 46.1216C154.041 46.3664 154.343 46.4888 154.703 46.4888ZM159.857 43.3064C160.279 43.3064 160.618 43.4408 160.872 43.7096C161.127 43.9736 161.254 44.3336 161.254 44.7896V47H160.627V44.8256C160.627 44.5328 160.548 44.3072 160.39 44.1488C160.231 43.9856 160.013 43.904 159.735 43.904C159.423 43.904 159.171 44.0024 158.979 44.1992C158.787 44.3912 158.691 44.6888 158.691 45.092V47H158.064V43.4H158.691V43.9184C158.945 43.5104 159.334 43.3064 159.857 43.3064ZM165.62 43.4H166.24V46.8488C166.24 47.3816 166.06 47.7944 165.7 48.0872C165.34 48.3848 164.908 48.5336 164.404 48.5336C164 48.5336 163.652 48.4568 163.36 48.3032C163.067 48.1544 162.846 47.9384 162.697 47.6552L163.244 47.3456C163.441 47.7488 163.832 47.9504 164.418 47.9504C164.792 47.9504 165.085 47.852 165.296 47.6552C165.512 47.4584 165.62 47.1896 165.62 46.8488V46.3376C165.304 46.8176 164.852 47.0576 164.267 47.0576C163.753 47.0576 163.319 46.8752 162.964 46.5104C162.608 46.1456 162.431 45.7016 162.431 45.1784C162.431 44.6552 162.608 44.2136 162.964 43.8536C163.319 43.4888 163.753 43.3064 164.267 43.3064C164.857 43.3064 165.308 43.544 165.62 44.0192V43.4ZM163.424 46.0928C163.669 46.3376 163.974 46.46 164.339 46.46C164.704 46.46 165.008 46.3376 165.253 46.0928C165.498 45.848 165.62 45.5432 165.62 45.1784C165.62 44.8184 165.498 44.516 165.253 44.2712C165.008 44.0264 164.704 43.904 164.339 43.904C163.974 43.904 163.669 44.0264 163.424 44.2712C163.18 44.516 163.057 44.8184 163.057 45.1784C163.057 45.5432 163.18 45.848 163.424 46.0928ZM168.132 45.488C168.194 45.8096 168.341 46.0592 168.571 46.2368C168.806 46.4144 169.094 46.5032 169.435 46.5032C169.91 46.5032 170.256 46.328 170.472 45.9776L171.005 46.28C170.654 46.8224 170.126 47.0936 169.421 47.0936C168.849 47.0936 168.384 46.916 168.024 46.5608C167.669 46.2008 167.491 45.7472 167.491 45.2C167.491 44.6576 167.666 44.2064 168.017 43.8464C168.367 43.4864 168.821 43.3064 169.377 43.3064C169.905 43.3064 170.335 43.4936 170.666 43.868C171.002 44.2376 171.17 44.684 171.17 45.2072C171.17 45.2984 171.163 45.392 171.149 45.488H168.132ZM169.377 43.8968C169.041 43.8968 168.763 43.9928 168.542 44.1848C168.321 44.372 168.185 44.624 168.132 44.9408H170.537C170.484 44.6 170.349 44.3408 170.133 44.1632C169.917 43.9856 169.665 43.8968 169.377 43.8968Z" fill="white"/>
<mask id="mask0" mask-type="alpha" maskUnits="userSpaceOnUse" x="0" y="0" width="74" height="48">
<path d="M11.7122 36.2667L0 20.2667L2.66187 10.6667L10.1151 3.2H50.0432L58.0288 10.6667L63.8849 6.4L67.0791 0L74 10.6667L68.6763 20.2667L65.482 33.0667L68.6763 43.2L58.0288 48L51.6403 37.3333L43.6547 41.0667L39.3957 46.9333L31.4101 41.0667L27.1511 44.2667L11.7122 36.2667Z" fill="#18345D"/>
</mask>
<g mask="url(#mask0)">
<rect x="1" y="34.5432" width="73" height="4.50617" fill="white"/>
<rect x="1" y="16.5185" width="73" height="4.50617" fill="white"/>
<rect x="1" y="7.50616" width="73" height="4.50617" fill="white"/>
<rect x="1" y="43.5555" width="73" height="4.50617" fill="white"/>
<rect x="1" y="25.5309" width="73" height="4.50617" fill="white"/>
<rect x="1" y="30.037" width="73" height="4.50617" fill="#E12E2E"/>
<rect x="1" y="12.0124" width="73" height="4.50617" fill="#E12E2E"/>
<rect x="1" y="3" width="73" height="4.50617" fill="#E12E2E"/>
<rect x="1" y="39.0494" width="73" height="4.50617" fill="#E12E2E"/>
<rect x="1" y="21.0247" width="73" height="4.50617" fill="#E12E2E"/>
<rect x="1" y="3" width="31.5432" height="18.0247" fill="#18345D"/>
</g>
</svg>
